<?xml version="1.0" encoding="utf-8"?>
<!-- Generator: Adobe Illustrator 23.0.5, SVG Export Plug-In . SVG Version: 6.00 Build 0)  -->
<svg version="1.1" id="Layer_1" xmlns="http://www.w3.org/2000/svg" xmlns:xlink="http://www.w3.org/1999/xlink" x="0px" y="0px"
	 viewBox="0 0 400 517" style="enable-background:new 0 0 400 517;" xml:space="preserve">
<style type="text/css">
	.st0{fill:#FFFFFF;}
	.st1{fill:#197CCE;}
	.st2{fill:#116FBC;}
	.st3{fill:#3966A5;}
	.st4{fill:#2D568E;}
	.st5{fill:#5272B0;}
</style>
<rect class="st0" width="400" height="517"/>
<g>
	<g>
		<polygon class="st1" points="284.2,319.4 113.8,319.4 113.8,265.1 139.5,265.1 139.5,296.5 258.5,296.5 258.5,265.1 284.2,265.1 
					"/>
	</g>
	<path class="st2" d="M149.5,319.4c0,0,103.9-3.3,134.6-33.7v33.7H149.5z"/>
	<g>
		<polygon id="XMLID_58_" class="st3" points="170.3,224.6 170.3,281.6 227.7,281.6 227.7,224.6 252.3,224.6 199,177 145.7,224.6 		
			"/>
		<path class="st4" d="M170.3,281.6c0,0,47.7-5.7,57.3-25.9v25.9H170.3z"/>
		<path class="st5" d="M162,214.1l37-33.6l7.7,6.4C206.7,186.9,193.3,190.9,162,214.1z"/>
	</g>
</g>
</svg>
